<svg width="418" height="413" xmlns="http://www.w3.org/2000/svg">
 <g>
  <title>background</title>
  <rect fill="none" id="canvas_background" height="415" width="420" y="-1" x="-1"/>
 </g>

 <g>
  <title>Layer 1</title>
  <g id="svg_18" stroke="null">
   <g id="svg_1" stroke="null">
    <path id="svg_2" d="m30.50405,312.367597c0,4.35983 2.18545,4.35983 2.18545,4.35983l34.86143,0c10.90264,0 10.90264,8.72088 10.90264,10.89772l-0.01475,2.17685l-30.49791,0c-4.36106,0 -21.78931,0 -21.78931,18.52836l0,2.1756c0,18.52222 17.42825,18.52222 21.78931,18.52222l39.22494,0l0,-39.22618l0,-2.17685c0,-2.17684 0,-19.61001 -19.61492,-19.61001l-34.86143,0c0,0 -2.18545,0 -2.18545,4.35246zm17.43809,47.93969c-4.36106,0 -13.07703,0 -13.07703,-9.80256l0,-2.1756c0,-9.80747 8.71597,-9.80747 13.07703,-9.80747l30.51266,0l0,21.78563l-30.51266,0z" stroke="null"/>
    <path id="svg_3" d="m241.86913,312.367597c0,4.35983 2.17685,4.35983 2.17685,4.35983l34.86511,0c10.89528,0 10.89528,8.72088 10.89528,10.89772l0,2.17685l-30.50406,0c-4.35369,0 -21.79301,0 -21.79301,18.52836l0,2.1756c0,18.52222 17.43932,18.52222 21.79301,18.52222l39.21634,0l0,-39.22618l0,-2.17685c0,-2.17684 0,-19.61001 -19.60756,-19.61001l-34.86511,0c0.00123,0 -2.17685,0 -2.17685,4.35246zm17.43441,47.93969c-4.35369,0 -13.07335,0 -13.07335,-9.80256l0,-2.1756c0,-9.80747 8.71966,-9.80747 13.07335,-9.80747l30.50406,0l0,21.78563l-30.50406,0z" stroke="null"/>
    <path id="svg_4" d="m335.56307,369.026947l-8.71475,0l0,-39.22618l0,-2.17685c0,-2.17684 0,-19.61001 19.61002,-19.61001l13.07334,0c0,0 2.17684,0 2.17684,4.35246c0,4.35983 -2.17684,4.35983 -2.17684,4.35983l-13.07334,0c-10.89527,0 -10.89527,8.72088 -10.89527,10.89772l0,2.17685l0,39.22618z" stroke="null"/>
    <path id="svg_5" d="m156.88995,412.604347c4.36105,0 4.36105,-2.17685 4.36105,-2.17685l0,-41.40055l21.78563,0c8.71229,0 30.50406,0 30.50406,-26.14546l0,-8.72704c0,-26.13808 -21.79177,-26.13808 -30.50406,-26.13808l-30.51266,0l0,61.0118l0,41.40056c-0.00123,-0.00246 0.01352,2.17561 4.36598,2.17561l0,0.00001zm26.14545,-95.87693c8.71229,0 21.79178,0 21.79178,17.4258l0,8.72704c0,17.42703 -13.08072,17.42703 -21.79178,17.42703l-21.78563,0l0,-43.57986l21.78563,0l0,-0.00001z" stroke="null"/>
    <path id="svg_6" d="m115.48816,369.026947l8.71351,0l0,-102.42097c0,0 0,-2.17685 -4.36106,-2.17685c-4.35245,0 -4.35245,2.17685 -4.35245,2.17685l0,102.42097z" stroke="null"/>
    <path id="svg_7" d="m383.49907,369.026947l8.72335,0l0,-58.83619c0,0 0,-2.17562 -4.36106,-2.17562c-4.36229,0 -4.36229,2.17562 -4.36229,2.17562l0,58.83619z" stroke="null"/>
    <path id="svg_8" d="m394.39556,290.575817c0,4.36598 -1.07919,5.45502 -1.07919,5.45502s-1.09518,1.0878 -5.45501,1.0878c-4.36229,0 -5.4501,-1.0878 -5.4501,-1.0878s-1.08781,-1.08904 -1.08781,-5.45502c0,-4.35983 1.08781,-5.44149 1.08781,-5.44149s1.08781,-1.09517 5.4501,-1.09517c4.36105,0 5.45501,1.09517 5.45501,1.09517s1.07919,1.08166 1.07919,5.44149z" stroke="null"/>
   </g>
   <g id="svg_9" stroke="null">
    <path id="svg_10" d="m418.37279,240.381847l-8.72826,0c-0.74734,0 -18.44846,-0.15855 -31.98274,-13.68546l-43.57003,-43.58477c-7.91333,-7.91211 -15.28706,-7.90596 -23.19793,0l-14.5508,14.55816l-31.98273,-31.98273c-3.93454,-3.93454 -7.83344,-5.9307 -11.59589,-5.9307l0,0c-3.76861,0 -7.6675,1.99616 -11.5959,5.92332l-14.55079,14.54834l-43.58477,-43.57372l-61.01181,61.01549l-14.55571,-14.55816c-7.85556,-7.86908 -15.32147,-7.87646 -23.18319,0l-43.57616,43.57863c-13.53428,13.53428 -31.24279,13.69283 -31.99011,13.69283l-8.71597,0l0,-4.18651l8.71597,0c0.16224,0 16.75467,-0.18807 29.02906,-12.46614l43.57371,-43.57248c9.49158,-9.49772 19.62231,-9.49772 29.11388,0l11.58729,11.59589l61.01181,-61.01426l43.58477,43.57494l11.59589,-11.59589c4.73719,-4.74087 9.63662,-7.14879 14.5508,-7.14879l0,0c4.91418,0 9.80746,2.40669 14.55079,7.14879l29.0266,29.03521l11.5959,-11.59589c9.51247,-9.54074 19.58051,-9.51862 29.1065,0l43.57249,43.57862c12.27931,12.27316 28.86067,12.46123 29.02661,12.46123l8.72826,0l0,4.18406l0.00246,0l0,-0.00001z" fill="#8DC63F" stroke="null"/>
   </g>
   <g id="svg_11" stroke="null">
    <path id="svg_12" d="m418.37279,196.804447l-8.72826,0c-0.74734,0 -18.44846,-0.15978 -31.98274,-13.69406l-43.57003,-43.58478c-7.92071,-7.90473 -15.29198,-7.88752 -23.19793,0l-14.5508,14.55817l-31.98273,-31.98643c-7.91333,-7.90595 -15.28091,-7.90595 -23.19056,0l-14.55079,14.55694l-43.58478,-43.58477l-61.0032,61.01549l-14.56431,-14.55817c-7.90596,-7.90227 -15.27969,-7.89735 -23.19056,0l-43.56756,43.58478c-13.53428,13.53428 -31.24279,13.69406 -31.99011,13.69406l-8.71597,0l0,-4.18774l8.71597,0c0.16224,0 16.75467,-0.18684 29.02906,-12.46l43.57371,-43.58477c9.52722,-9.51246 19.58789,-9.50878 29.1065,-0.00245l11.5959,11.59834l61.0118,-61.01425l43.58478,43.58476l11.59589,-11.59465c9.49772,-9.51617 19.56085,-9.5346 29.10159,-0.00369l29.0266,29.02783l11.5959,-11.5959c9.49894,-9.50878 19.56576,-9.51984 29.1065,-0.00246l43.57248,43.58724c12.27931,12.27316 28.86067,12.46 29.02662,12.46l8.72826,0l0,4.18651l-0.00123,0z" fill="#BEB632" stroke="null"/>
   </g>
   <g id="svg_13" stroke="null">
    <path id="svg_14" d="m418.37279,153.218447l-8.72826,0c-0.74734,0 -18.44846,-0.15856 -31.98274,-13.69284l-43.57003,-43.5774c-7.92071,-7.91334 -15.29198,-7.90226 -23.19793,0.00368l-14.5508,14.54957l-31.98273,-31.98028c-7.86785,-7.86908 -15.32148,-7.86416 -23.19056,-0.00246l-14.55079,14.54957l-43.58478,-43.5774l-61.0118,61.01057l-14.55571,-14.55448c-7.90596,-7.90964 -15.27969,-7.90595 -23.19056,0.00369l-43.56756,43.57371c-13.53428,13.53428 -31.24279,13.69285 -31.99011,13.69285l-8.71598,0l0,-4.18653l8.71598,0c0.16224,0 16.75466,-0.18806 29.02906,-12.46367l43.57371,-43.57495c9.51984,-9.52107 19.58789,-9.51738 29.1065,-0.00368l11.5959,11.59589l61.0118,-61.01058l43.58478,43.57864l11.59589,-11.59221c9.48542,-9.48297 19.61493,-9.48666 29.10159,0.00368l29.0266,29.02047l11.5959,-11.59221c9.49894,-9.51738 19.58051,-9.52721 29.1065,-0.00369l43.57248,43.58232c12.27931,12.27316 28.86067,12.46122 29.02661,12.46122l8.72827,0l0,4.18652l-0.00123,0z" fill="#D88D2A" stroke="null"/>
   </g>
   <g id="svg_15" stroke="null">
    <path id="svg_16" d="m418.37279,109.637357l-8.72826,0c-0.74734,0 -18.44846,-0.15856 -31.98274,-13.68424l-43.57003,-43.57493c-7.91333,-7.91211 -15.28706,-7.90842 -23.19793,-0.0037l-14.5508,14.55695l-31.98273,-31.98643c-3.93454,-3.93086 -7.83344,-5.92332 -11.59589,-5.92701l0,0c-3.76861,0 -7.6675,1.99247 -11.5959,5.92332l-14.55079,14.5508l-43.58477,-43.57495l-61.01181,61.01427l-14.55571,-14.55695c-7.85556,-7.86908 -15.32147,-7.87645 -23.18319,0l-43.57985,43.57863c-13.52936,13.52568 -31.2391,13.68424 -31.98519,13.68424l-8.71597,0l0,-4.18775l8.71597,0c0.16224,0 16.75467,-0.18805 29.03152,-12.45999l43.57248,-43.57125c9.49158,-9.50141 19.62231,-9.49404 29.11388,0l11.58729,11.59589l61.01181,-61.01426l43.58477,43.57494l11.59589,-11.59221c4.73719,-4.74086 9.63662,-7.14879 14.5508,-7.14879l0,0c4.91418,0 9.80746,2.4067 14.55079,7.14879l29.0266,29.03153l11.5959,-11.59835c9.51247,-9.5309 19.58051,-9.51616 29.1065,0l43.57249,43.57371c12.32109,12.31987 28.86067,12.45999 29.02661,12.45999l8.72826,0l0,4.18776l0,-0.00001z" fill="#F15A22" stroke="null"/>
   </g>
  </g>
 </g>
</svg>