<?xml version="1.0" encoding="UTF-8" standalone="yes"?>
<!DOCTYPE svg PUBLIC "-//W3C//DTD SVG 1.1//EN" "http://www.w3.org/Graphics/SVG/1.1/DTD/svg11.dtd">

<svg width="300" height="90" viewBox="0 0 300 90" xmlns="http://www.w3.org/2000/svg" xmlns:xlink="http://www.w3.org/1999/xlink" version="1.1" baseProfile="full">
    <g transform="scale(1,-1) translate(0,-90)">
        <rect width="300" height="90" style="fill:rgb(254,254,254)"></rect>
        <path d="M 11.511211 12.668176 L 10.591211 13.197176 L 10.591211 19.200176 C 10.591211 19.982176 10.315211 20.327176 9.602211 20.373176 C 8.866211 20.442176 3.599211 20.396176 3.461211 20.396176 C 2.840211 20.396176 2.587211 20.097176 2.587211 19.315176 L 2.587211 13.197176 L 1.667211 12.668176 C 1.552211 12.599176 1.483211 12.484176 1.483211 12.346176 C 1.483211 12.185176 1.552211 12.093176 1.667211 12.024176 L 2.587211 11.495176 L 2.587211 5.768176 C 2.587211 4.940176 2.587211 4.641176 2.748211 4.457176 C 2.932211 4.273176 3.323211 4.296176 4.105211 4.296176 C 5.232211 4.296176 5.324211 4.388176 5.324211 5.469176 L 5.324211 16.233176 C 5.324211 16.923176 5.255211 17.521176 5.922211 17.567176 C 6.589211 17.613176 7.578211 17.705176 7.762211 17.061176 C 7.831211 16.831176 7.854211 16.509176 7.854211 16.072176 L 7.877211 5.492176 C 7.877211 4.871176 7.808211 4.365176 8.383211 4.319176 C 8.590211 4.296176 8.889211 4.296176 9.280211 4.296176 C 10.522211 4.296176 10.591211 4.342176 10.591211 5.561176 L 10.591211 11.495176 L 11.511211 12.024176 C 11.626211 12.093176 11.695211 12.185176 11.695211 12.346176 C 11.695211 12.484176 11.626211 12.599176 11.511211 12.668176 Z M 21.654211 8.643176 L 21.631211 16.256176 C 21.631211 17.475176 21.332211 18.786176 20.366211 19.683176 C 19.400211 20.603176 18.250211 20.856176 16.433211 20.580176 C 16.134211 20.534176 15.881211 20.419176 15.605211 20.212176 C 14.271211 19.246176 13.627211 18.096176 13.673211 16.739176 L 13.673211 8.114176 C 13.673211 7.378176 13.788211 6.780176 14.064211 6.274176 C 15.536211 3.514176 19.354211 3.330176 21.171211 6.251176 C 21.286211 6.458176 21.378211 6.642176 21.401211 6.849176 C 21.585211 7.792176 21.654211 8.390176 21.654211 8.643176 Z M 18.618211 7.700176 C 18.204211 6.780176 16.870211 6.803176 16.502211 7.746176 C 16.410211 7.930176 16.387211 8.275176 16.387211 8.735176 L 16.387211 16.233176 C 16.387211 16.601176 16.387211 16.831176 16.410211 16.969176 C 16.571211 18.142176 18.273211 18.280176 18.641211 17.153176 C 18.710211 16.923176 18.756211 16.670176 18.756211 16.348176 L 18.756211 8.574176 C 18.756211 8.206176 18.710211 7.907176 18.618211 7.700176 Z M 33.177211 6.918176 C 32.786211 7.010176 32.625211 7.171176 32.579211 7.562176 L 30.670211 19.315176 C 30.578211 19.683176 30.486211 20.097176 30.325211 20.258176 C 30.210211 20.327176 30.026211 20.373176 29.773211 20.396176 L 27.772211 20.396176 C 26.967211 20.396176 26.783211 20.258176 26.622211 19.499176 C 26.415211 18.234176 24.782211 9.264176 24.529211 7.976176 C 24.437211 7.332176 24.414211 7.102176 23.908211 7.010176 C 23.632211 6.964176 23.264211 6.826176 23.264211 5.929176 L 23.264211 2.433176 C 23.264211 1.306176 23.287211 1.260176 24.414211 1.260176 C 24.874211 1.260176 25.196211 1.260176 25.426211 1.283176 C 26.070211 1.329176 25.978211 1.835176 25.978211 2.709176 C 25.978211 3.008176 26.001211 3.422176 26.001211 3.468176 C 26.093211 4.411176 26.346211 4.296176 27.795211 4.296176 L 28.991211 4.296176 C 30.670211 4.296176 30.923211 4.411176 31.015211 3.468176 C 31.015211 3.422176 31.038211 3.008176 31.038211 2.709176 C 31.038211 1.835176 30.946211 1.329176 31.590211 1.283176 C 31.820211 1.260176 32.142211 1.260176 32.602211 1.260176 C 33.729211 1.260176 33.752211 1.306176 33.752211 2.433176 L 33.752211 5.929176 C 33.752211 6.596176 33.614211 6.826176 33.177211 6.918176 Z M 29.658211 8.022176 C 29.750211 7.355176 29.451211 7.010176 28.991211 7.010176 L 28.094211 7.010176 C 27.197211 7.010176 27.243211 7.493176 27.381211 8.344176 C 27.841211 11.357176 28.071211 12.990176 28.255211 13.404176 C 28.347211 13.565176 28.623211 13.657176 28.761211 13.404176 L 28.922211 13.059176 C 28.922211 12.990176 29.359211 10.345176 29.658211 8.022176 Z M 45.045211 6.918176 C 44.654211 7.010176 44.493211 7.171176 44.447211 7.562176 L 42.538211 19.315176 C 42.446211 19.683176 42.354211 20.097176 42.193211 20.258176 C 42.078211 20.327176 41.894211 20.373176 41.641211 20.396176 L 39.640211 20.396176 C 38.835211 20.396176 38.651211 20.258176 38.490211 19.499176 C 38.283211 18.234176 36.650211 9.264176 36.397211 7.976176 C 36.305211 7.332176 36.282211 7.102176 35.776211 7.010176 C 35.500211 6.964176 35.132211 6.826176 35.132211 5.929176 L 35.132211 2.433176 C 35.132211 1.306176 35.155211 1.260176 36.282211 1.260176 C 36.742211 1.260176 37.064211 1.260176 37.294211 1.283176 C 37.938211 1.329176 37.846211 1.835176 37.846211 2.709176 C 37.846211 3.008176 37.869211 3.422176 37.869211 3.468176 C 37.961211 4.411176 38.214211 4.296176 39.663211 4.296176 L 40.859211 4.296176 C 42.538211 4.296176 42.791211 4.411176 42.883211 3.468176 C 42.883211 3.422176 42.906211 3.008176 42.906211 2.709176 C 42.906211 1.835176 42.814211 1.329176 43.458211 1.283176 C 43.688211 1.260176 44.010211 1.260176 44.470211 1.260176 C 45.597211 1.260176 45.620211 1.306176 45.620211 2.433176 L 45.620211 5.929176 C 45.620211 6.596176 45.482211 6.826176 45.045211 6.918176 Z M 41.526211 8.022176 C 41.618211 7.355176 41.319211 7.010176 40.859211 7.010176 L 39.962211 7.010176 C 39.065211 7.010176 39.111211 7.493176 39.249211 8.344176 C 39.709211 11.357176 39.939211 12.990176 40.123211 13.404176 C 40.215211 13.565176 40.491211 13.657176 40.629211 13.404176 L 40.790211 13.059176 C 40.790211 12.990176 41.227211 10.345176 41.526211 8.022176 Z M 54.383211 6.527176 C 54.314211 7.056176 53.854211 6.987176 53.164211 7.010176 L 50.910211 7.010176 C 50.151211 7.033176 49.944211 7.263176 49.898211 7.999176 C 49.875211 8.712176 49.875211 9.333176 49.921211 9.885176 C 49.967211 10.874176 50.197211 10.989176 51.071211 10.989176 C 51.738211 10.989176 52.267211 10.989176 52.612211 11.012176 C 52.934211 11.035176 53.118211 11.196176 53.118211 11.518176 C 53.164211 12.001176 53.164211 12.484176 53.141211 12.967176 C 53.118211 13.519176 52.980211 13.680176 52.428211 13.680176 C 52.267211 13.703176 51.991211 13.703176 51.623211 13.703176 C 50.910211 13.703176 50.404211 13.680176 50.128211 13.933176 C 50.013211 14.071176 49.921211 14.301176 49.921211 14.600176 C 49.875211 15.336176 49.875211 16.095176 49.898211 16.877176 C 49.944211 17.590176 50.151211 17.820176 50.910211 17.843176 L 53.187211 17.843176 C 53.854211 17.843176 54.337211 17.797176 54.383211 18.349176 C 54.429211 18.878176 54.452211 20.028176 54.245211 20.235176 C 54.130211 20.327176 53.831211 20.396176 53.302211 20.396176 L 48.334211 20.396176 C 47.207211 20.396176 47.184211 20.350176 47.184211 19.200176 L 47.184211 5.814176 C 47.184211 4.963176 47.161211 4.664176 47.368211 4.480176 C 47.575211 4.296176 47.966211 4.296176 48.288211 4.296176 L 53.279211 4.296176 C 53.762211 4.296176 54.314211 4.250176 54.360211 4.802176 C 54.429211 5.354176 54.429211 5.929176 54.383211 6.527176 Z M 64.319211 17.061176 C 64.089211 19.844176 61.720211 20.442176 60.340211 20.442176 C 60.156211 20.442176 59.742211 20.442176 59.029211 20.442176 L 57.695211 20.442176 C 56.545211 20.442176 56.522211 20.419176 56.522211 19.292176 L 56.522211 5.400176 C 56.522211 4.848176 56.476211 4.342176 57.028211 4.296176 C 57.741211 4.250176 58.868211 4.227176 59.075211 4.434176 C 59.167211 4.526176 59.236211 4.802176 59.236211 5.216176 L 59.236211 8.827176 C 59.236211 9.563176 59.121211 10.115176 59.903211 10.207176 C 60.018211 10.230176 60.363211 10.253176 60.892211 10.253176 C 61.306211 10.276176 61.628211 10.322176 61.858211 10.414176 C 63.307211 10.966176 64.273211 12.254176 64.342211 13.795176 L 64.342211 15.336176 C 64.342211 16.417176 64.342211 16.992176 64.319211 17.061176 Z M 61.743211 14.209176 C 61.605211 13.289176 60.777211 12.714176 59.903211 12.852176 C 59.489211 12.921176 59.282211 13.151176 59.259211 13.519176 L 59.259211 15.336176 L 59.236211 15.336176 C 59.236211 17.245176 58.983211 17.774176 60.202211 17.682176 C 61.904211 17.544176 61.950211 15.773176 61.743211 14.209176 Z M 77.866211 19.200176 C 78.004211 19.499176 78.119211 19.729176 78.142211 19.890176 C 78.234211 20.143176 78.073211 20.350176 77.797211 20.396176 C 77.153211 20.465176 76.463211 20.465176 75.727211 20.396176 C 75.451211 20.373176 75.244211 20.166176 75.106211 19.798176 C 74.922211 19.384176 74.416211 17.659176 73.818211 16.095176 C 73.703211 15.796176 73.381211 15.865176 73.381211 16.164176 L 73.381211 19.292176 C 73.381211 19.844176 73.427211 20.350176 72.898211 20.373176 C 72.369211 20.396176 71.863211 20.396176 71.357211 20.373176 C 70.805211 20.350176 70.851211 19.821176 70.851211 19.108176 L 70.851211 16.164176 C 70.851211 15.865176 70.529211 15.796176 70.414211 16.095176 C 69.816211 17.659176 69.310211 19.384176 69.126211 19.798176 C 68.988211 20.166176 68.781211 20.373176 68.505211 20.396176 C 67.769211 20.465176 67.079211 20.465176 66.435211 20.396176 C 66.159211 20.350176 65.998211 20.143176 66.090211 19.890176 C 66.113211 19.729176 66.228211 19.499176 66.366211 19.200176 L 68.965211 13.381176 C 69.287211 12.599176 69.287211 12.162176 68.942211 11.288176 C 68.344211 9.908176 67.493211 8.160176 66.458211 5.492176 C 66.251211 4.940176 65.929211 4.365176 66.619211 4.319176 C 66.872211 4.319176 67.378211 4.296176 68.344211 4.296176 C 69.057211 4.296176 69.103211 4.710176 69.425211 5.607176 C 70.138211 7.654176 70.299211 8.114176 70.414211 8.413176 C 70.529211 8.689176 70.851211 8.689176 70.851211 8.298176 L 70.851211 5.722176 C 70.851211 5.308176 70.851211 5.032176 70.874211 4.894176 C 70.897211 4.480176 71.035211 4.319176 71.426211 4.319176 C 71.863211 4.296176 72.323211 4.296176 72.760211 4.296176 C 73.197211 4.342176 73.335211 4.480176 73.381211 4.940176 L 73.381211 8.298176 C 73.381211 8.689176 73.703211 8.689176 73.818211 8.413176 C 73.933211 8.114176 74.094211 7.654176 74.807211 5.607176 C 75.129211 4.710176 75.175211 4.296176 75.888211 4.296176 C 76.854211 4.296176 77.360211 4.319176 77.613211 4.319176 C 78.303211 4.365176 77.981211 4.940176 77.774211 5.492176 C 76.693211 8.275176 75.842211 10.023176 75.221211 11.472176 C 74.945211 12.208176 74.945211 12.599176 75.267211 13.381176 Z M 88.653211 5.676176 C 88.630211 5.860176 86.997211 15.497176 86.353211 19.315176 C 86.284211 19.683176 86.192211 20.097176 86.031211 20.258176 C 85.939211 20.327176 85.755211 20.373176 85.525211 20.396176 L 83.432211 20.396176 C 82.696211 20.396176 82.512211 20.258176 82.374211 19.499176 C 82.167211 18.234176 80.534211 8.620176 79.982211 5.492176 C 79.890211 4.825176 79.729211 4.342176 80.373211 4.319176 C 80.856211 4.296176 81.454211 4.296176 82.167211 4.319176 C 82.489211 4.319176 82.673211 4.480176 82.742211 4.825176 C 82.926211 5.883176 83.041211 6.504176 83.064211 6.688176 C 83.202211 7.861176 83.386211 7.907176 84.582211 7.907176 C 84.582211 7.907176 84.651211 7.907176 84.766211 7.884176 C 85.571211 7.861176 85.617211 6.757176 85.640211 6.527176 C 85.686211 6.343176 85.709211 6.067176 85.755211 5.722176 C 85.847211 4.986176 85.870211 4.641176 86.077211 4.457176 C 86.169211 4.365176 86.307211 4.319176 86.537211 4.296176 C 86.721211 4.296176 88.354211 4.227176 88.561211 4.434176 C 88.745211 4.595176 88.768211 5.009176 88.653211 5.676176 Z M 85.042211 10.736176 C 84.996211 10.437176 83.708211 10.414176 83.708211 10.759176 C 83.708211 10.828176 83.708211 10.943176 83.731211 11.058176 C 83.800211 12.024176 83.938211 12.737176 84.099211 13.174176 C 84.191211 13.335176 84.444211 13.427176 84.582211 13.174176 C 84.651211 13.036176 84.697211 12.921176 84.720211 12.829176 C 84.720211 12.760176 84.973211 11.541176 85.019211 11.127176 C 85.042211 10.920176 85.042211 10.782176 85.042211 10.736176 Z M 98.313211 19.315176 C 98.313211 20.396176 98.267211 20.396176 97.186211 20.396176 L 91.666211 20.396176 C 91.137211 20.396176 90.861211 20.442176 90.677211 20.281176 C 90.608211 20.212176 90.539211 20.074176 90.539211 19.890176 C 90.516211 19.361176 90.516211 18.832176 90.539211 18.349176 C 90.562211 17.889176 90.723211 17.774176 91.183211 17.751176 C 91.275211 17.728176 91.459211 17.728176 91.712211 17.728176 C 92.172211 17.728176 92.632211 17.728176 92.862211 17.475176 C 93.069211 17.245176 93.069211 16.946176 93.069211 16.164176 L 93.069211 5.561176 C 93.069211 4.871176 92.977211 4.319176 93.575211 4.296176 C 94.127211 4.273176 94.702211 4.273176 95.300211 4.296176 C 95.852211 4.342176 95.783211 4.871176 95.783211 5.699176 L 95.783211 15.934176 C 95.783211 16.831176 95.760211 17.222176 96.036211 17.475176 C 96.312211 17.751176 96.795211 17.728176 97.255211 17.728176 C 97.669211 17.728176 97.991211 17.728176 98.175211 17.889176 C 98.244211 17.981176 98.290211 18.119176 98.290211 18.326176 C 98.313211 18.510176 98.313211 18.855176 98.313211 19.315176 Z M 107.881211 9.356176 L 107.881211 10.897176 C 107.812211 12.806176 106.846211 14.094176 105.397211 14.646176 C 105.167211 14.738176 104.845211 14.784176 104.431211 14.807176 C 103.902211 14.807176 103.557211 14.830176 103.442211 14.853176 C 102.660211 14.945176 102.775211 15.497176 102.775211 16.233176 L 102.775211 19.476176 C 102.775211 19.890176 102.706211 20.166176 102.614211 20.258176 C 102.407211 20.465176 101.280211 20.442176 100.567211 20.396176 C 100.015211 20.350176 100.061211 19.844176 100.061211 19.292176 L 100.061211 5.400176 C 100.061211 4.273176 100.084211 4.250176 101.234211 4.250176 L 103.879211 4.250176 C 105.259211 4.250176 107.628211 4.848176 107.858211 7.631176 C 107.881211 7.700176 107.881211 8.275176 107.881211 9.356176 Z M 105.282211 10.483176 C 105.282211 8.919176 105.443211 7.148176 103.741211 7.010176 C 102.522211 6.918176 102.775211 7.447176 102.775211 9.356176 C 102.798211 10.713176 102.798211 10.138176 102.798211 11.541176 C 102.821211 11.909176 103.028211 12.139176 103.442211 12.208176 C 104.316211 12.346176 105.282211 11.771176 105.282211 10.483176 Z M 126.672211 5.607176 L 126.672211 19.108176 C 126.672211 19.775176 126.764211 20.327176 126.143211 20.350176 C 125.430211 20.373176 124.556211 20.373176 123.521211 20.350176 C 122.831211 20.350176 122.900211 19.867176 122.716211 18.832176 C 122.624211 18.418176 122.578211 18.096176 122.532211 17.843176 C 122.371211 17.107176 122.187211 16.095176 121.957211 14.876176 L 121.405211 11.886176 C 121.405211 11.794176 121.382211 11.748176 121.359211 11.702176 C 121.198211 11.334176 120.876211 11.380176 120.784211 11.656176 C 120.692211 11.932176 120.623211 12.139176 120.600211 12.254176 L 119.404211 18.303176 L 119.082211 19.890176 C 119.013211 20.189176 118.829211 20.350176 118.576211 20.350176 L 115.770211 20.350176 C 115.195211 20.327176 115.264211 19.752176 115.264211 19.085176 L 115.264211 5.584176 C 115.264211 4.825176 115.195211 4.342176 115.747211 4.273176 C 116.322211 4.227176 116.897211 4.227176 117.449211 4.273176 C 118.024211 4.365176 117.978211 4.917176 117.978211 5.561176 L 117.978211 9.471176 C 117.978211 9.862176 118.024211 10.138176 118.093211 10.276176 C 118.116211 10.368176 118.346211 10.460176 118.438211 10.276176 C 118.553211 10.023176 118.622211 9.839176 118.668211 9.701176 C 118.806211 9.103176 119.013211 8.275176 119.243211 7.217176 C 119.335211 6.895176 119.680211 5.446176 119.818211 4.848176 C 119.910211 4.411176 120.048211 4.296176 120.508211 4.273176 C 121.152211 4.227176 121.865211 4.250176 122.049211 4.411176 C 122.141211 4.503176 122.233211 4.687176 122.302211 4.940176 C 122.394211 5.354176 122.532211 5.929176 122.693211 6.711176 L 123.176211 9.103176 C 123.245211 9.448176 123.337211 9.678176 123.429211 9.793176 C 123.475211 9.839176 123.521211 9.862176 123.590211 9.862176 C 123.659211 9.862176 123.705211 9.839176 123.728211 9.770176 C 123.866211 9.425176 123.958211 8.988176 123.958211 8.436176 L 123.958211 5.446176 C 123.958211 4.871176 123.912211 4.342176 124.372211 4.296176 C 124.993211 4.227176 125.591211 4.227176 126.189211 4.296176 C 126.718211 4.365176 126.672211 4.963176 126.672211 5.607176 Z M 135.665211 6.527176 C 135.596211 7.056176 135.136211 6.987176 134.446211 7.010176 L 132.192211 7.010176 C 131.433211 7.033176 131.226211 7.263176 131.180211 7.999176 C 131.157211 8.712176 131.157211 9.333176 131.203211 9.885176 C 131.249211 10.874176 131.479211 10.989176 132.353211 10.989176 C 133.020211 10.989176 133.549211 10.989176 133.894211 11.012176 C 134.216211 11.035176 134.400211 11.196176 134.400211 11.518176 C 134.446211 12.001176 134.446211 12.484176 134.423211 12.967176 C 134.400211 13.519176 134.262211 13.680176 133.710211 13.680176 C 133.549211 13.703176 133.273211 13.703176 132.905211 13.703176 C 132.192211 13.703176 131.686211 13.680176 131.410211 13.933176 C 131.295211 14.071176 131.203211 14.301176 131.203211 14.600176 C 131.157211 15.336176 131.157211 16.095176 131.180211 16.877176 C 131.226211 17.590176 131.433211 17.820176 132.192211 17.843176 L 134.469211 17.843176 C 135.136211 17.843176 135.619211 17.797176 135.665211 18.349176 C 135.711211 18.878176 135.734211 20.028176 135.527211 20.235176 C 135.412211 20.327176 135.113211 20.396176 134.584211 20.396176 L 129.616211 20.396176 C 128.489211 20.396176 128.466211 20.350176 128.466211 19.200176 L 128.466211 5.814176 C 128.466211 4.963176 128.443211 4.664176 128.650211 4.480176 C 128.857211 4.296176 129.248211 4.296176 129.570211 4.296176 L 134.561211 4.296176 C 135.044211 4.296176 135.596211 4.250176 135.642211 4.802176 C 135.711211 5.354176 135.711211 5.929176 135.665211 6.527176 Z M 145.624211 5.561176 L 145.624211 19.292176 C 145.624211 19.890176 145.716211 20.419176 145.095211 20.465176 C 144.658211 20.511176 143.278211 20.534176 143.071211 20.327176 C 142.956211 20.212176 142.910211 19.890176 142.910211 19.315176 C 142.887211 18.855176 142.887211 18.165176 142.887211 17.268176 L 142.887211 15.221176 C 142.887211 14.554176 142.933211 13.841176 142.243211 13.772176 C 141.645211 13.680176 140.840211 13.680176 140.564211 13.933176 C 140.311211 14.186176 140.357211 14.646176 140.357211 15.382176 L 140.357211 19.200176 C 140.357211 19.890176 140.449211 20.419176 139.828211 20.465176 C 139.391211 20.511176 138.011211 20.534176 137.781211 20.327176 C 137.666211 20.212176 137.620211 19.890176 137.620211 19.315176 L 137.620211 5.768176 C 137.620211 4.940176 137.620211 4.641176 137.781211 4.457176 C 137.965211 4.273176 138.356211 4.296176 139.138211 4.296176 C 140.265211 4.296176 140.357211 4.388176 140.357211 5.469176 L 140.357211 9.655176 C 140.357211 10.299176 140.288211 10.897176 140.955211 10.943176 C 141.622211 10.989176 142.611211 11.081176 142.795211 10.437176 C 142.864211 10.207176 142.887211 9.885176 142.887211 9.494176 L 142.910211 5.492176 C 142.910211 4.871176 142.841211 4.365176 143.416211 4.319176 C 143.623211 4.296176 143.922211 4.296176 144.313211 4.296176 C 145.555211 4.296176 145.624211 4.342176 145.624211 5.561176 Z M 147.280211 5.561176 C 147.188211 5.262176 147.142211 4.986176 147.119211 4.779176 C 147.073211 4.549176 147.211211 4.342176 147.464211 4.319176 C 148.085211 4.250176 148.775211 4.250176 149.534211 4.296176 C 150.040211 4.365176 150.109211 4.894176 150.247211 5.538176 C 150.316211 5.883176 150.477211 6.504176 150.707211 7.401176 L 151.144211 9.264176 C 151.236211 9.701176 151.351211 10.299176 152.018211 10.207176 C 152.685211 10.115176 152.639211 9.494176 152.662211 8.781176 L 152.662211 5.538176 C 152.662211 4.848176 152.570211 4.319176 153.214211 4.296176 C 153.743211 4.273176 154.295211 4.273176 154.847211 4.296176 C 155.468211 4.319176 155.376211 4.871176 155.376211 5.630176 L 155.376211 19.223176 C 155.376211 19.798176 155.330211 20.143176 155.215211 20.258176 C 155.008211 20.465176 154.341211 20.419176 153.007211 20.419176 L 152.248211 20.419176 C 149.741211 20.419176 147.671211 19.016176 147.602211 16.923176 C 147.579211 16.302176 147.579211 15.497176 147.602211 13.381176 C 147.602211 12.852176 147.832211 12.300176 148.269211 11.748176 C 148.591211 11.357176 148.660211 10.874176 148.522211 10.299176 C 148.315211 9.563176 147.901211 7.999176 147.280211 5.561176 Z M 150.155211 14.278176 L 150.201211 15.796176 C 150.224211 17.314176 150.615211 17.659176 152.064211 17.659176 C 152.892211 17.659176 152.639211 17.199176 152.639211 15.290176 C 152.639211 14.278176 152.616211 13.634176 152.616211 13.588176 C 152.616211 13.197176 152.432211 12.967176 152.041211 12.852176 C 151.190211 12.645176 150.385211 13.151176 150.201211 14.002176 C 150.178211 14.140176 150.155211 14.232176 150.155211 14.278176 Z M 170.579211 5.561176 L 170.579211 19.292176 C 170.579211 19.890176 170.671211 20.419176 170.050211 20.465176 C 169.613211 20.511176 168.233211 20.534176 168.026211 20.327176 C 167.911211 20.212176 167.865211 19.890176 167.865211 19.315176 C 167.842211 18.855176 167.842211 18.165176 167.842211 17.268176 L 167.842211 15.221176 C 167.842211 14.554176 167.888211 13.841176 167.198211 13.772176 C 166.600211 13.680176 165.795211 13.680176 165.519211 13.933176 C 165.266211 14.186176 165.312211 14.646176 165.312211 15.382176 L 165.312211 19.200176 C 165.312211 19.890176 165.404211 20.419176 164.783211 20.465176 C 164.346211 20.511176 162.966211 20.534176 162.736211 20.327176 C 162.621211 20.212176 162.575211 19.890176 162.575211 19.315176 L 162.575211 5.768176 C 162.575211 4.940176 162.575211 4.641176 162.736211 4.457176 C 162.920211 4.273176 163.311211 4.296176 164.093211 4.296176 C 165.220211 4.296176 165.312211 4.388176 165.312211 5.469176 L 165.312211 9.655176 C 165.312211 10.299176 165.243211 10.897176 165.910211 10.943176 C 166.577211 10.989176 167.566211 11.081176 167.750211 10.437176 C 167.819211 10.207176 167.842211 9.885176 167.842211 9.494176 L 167.865211 5.492176 C 167.865211 4.871176 167.796211 4.365176 168.371211 4.319176 C 168.578211 4.296176 168.877211 4.296176 169.268211 4.296176 C 170.510211 4.296176 170.579211 4.342176 170.579211 5.561176 Z M 181.182211 5.676176 C 181.159211 5.860176 179.526211 15.497176 178.882211 19.315176 C 178.813211 19.683176 178.721211 20.097176 178.560211 20.258176 C 178.468211 20.327176 178.284211 20.373176 178.054211 20.396176 L 175.961211 20.396176 C 175.225211 20.396176 175.041211 20.258176 174.903211 19.499176 C 174.696211 18.234176 173.063211 8.620176 172.511211 5.492176 C 172.419211 4.825176 172.258211 4.342176 172.902211 4.319176 C 173.385211 4.296176 173.983211 4.296176 174.696211 4.319176 C 175.018211 4.319176 175.202211 4.480176 175.271211 4.825176 C 175.455211 5.883176 175.570211 6.504176 175.593211 6.688176 C 175.731211 7.861176 175.915211 7.907176 177.111211 7.907176 C 177.111211 7.907176 177.180211 7.907176 177.295211 7.884176 C 178.100211 7.861176 178.146211 6.757176 178.169211 6.527176 C 178.215211 6.343176 178.238211 6.067176 178.284211 5.722176 C 178.376211 4.986176 178.399211 4.641176 178.606211 4.457176 C 178.698211 4.365176 178.836211 4.319176 179.066211 4.296176 C 179.250211 4.296176 180.883211 4.227176 181.090211 4.434176 C 181.274211 4.595176 181.297211 5.009176 181.182211 5.676176 Z M 177.571211 10.736176 C 177.525211 10.437176 176.237211 10.414176 176.237211 10.759176 C 176.237211 10.828176 176.237211 10.943176 176.260211 11.058176 C 176.329211 12.024176 176.467211 12.737176 176.628211 13.174176 C 176.720211 13.335176 176.973211 13.427176 177.111211 13.174176 C 177.180211 13.036176 177.226211 12.921176 177.249211 12.829176 C 177.249211 12.760176 177.502211 11.541176 177.548211 11.127176 C 177.571211 10.920176 177.571211 10.782176 177.571211 10.736176 Z" transform="scale(1.000000,1.000000) translate(64.000000,56.000000)" opacity="1.000000"></path>
        <path d="M 25.602181 45.892319 C 26.893662 45.659619 28.208413 45.508365 29.476624 45.194221 C 38.226117 43.030117 44.858047 35.607010 46.091354 26.648088 C 47.731884 14.733884 39.982998 3.843557 28.173509 1.481659 C 27.324156 1.307134 26.451534 1.214055 25.590546 1.086070 C 21.634658 1.086070 17.678770 1.086070 13.722882 1.086070 C 13.722882 8.590622 13.722882 16.095174 13.734517 23.588091 C 13.734517 24.088395 13.781057 24.600333 13.862502 25.089001 C 14.630410 30.126941 19.226221 33.931575 24.264161 33.733781 C 29.581340 33.512716 33.851372 29.405574 34.188786 24.169840 C 34.689089 16.397683 26.777313 10.940885 19.691620 14.175405 C 19.540366 14.245215 19.389111 14.303390 19.168047 14.384834 C 19.168047 11.999667 19.156412 9.695944 19.191317 7.392221 C 19.191317 7.252601 19.458921 7.043172 19.633445 6.996632 C 21.902263 6.345074 24.217621 6.217089 26.544614 6.589408 C 36.387794 8.171764 42.740485 17.514640 40.611287 27.218201 C 38.644978 36.200393 29.662785 42.076051 20.715497 40.249361 C 12.617561 38.620466 6.962968 31.709297 6.939698 23.425201 C 6.928063 16.176618 6.939698 8.928035 6.939698 1.679453 C 6.939698 1.481659 6.962968 1.295499 6.986238 1.097705 C 5.206088 1.097705 3.414303 1.097705 1.634154 1.097705 C 1.634154 9.125830 1.634154 17.153956 1.634154 25.182082 C 1.703964 25.635845 1.785408 26.089609 1.843583 26.555007 C 3.076890 35.595375 9.673914 42.995212 18.528122 45.205856 C 19.784699 45.520000 21.076181 45.671254 22.344391 45.892319 C 23.426443 45.892319 24.520129 45.892319 25.602181 45.892319 Z" transform="scale(1.000000,1.000000) translate(56.000000,6.000000)" opacity="1.000000"></path>
        <path d="M 21.101560 1.245215 C 19.903159 1.245215 18.704758 1.245215 17.413277 1.245215 C 17.413277 2.141107 17.413277 3.025364 17.413277 3.909622 C 17.401642 7.341936 17.413277 10.774251 17.378372 14.206565 C 17.343467 16.894242 15.318983 19.314315 12.689481 19.861158 C 9.082642 20.617431 5.417628 17.697055 5.405993 13.997136 C 5.394358 9.983073 5.417628 5.969010 5.429263 1.954947 C 5.429263 1.722248 5.429263 1.501184 5.429263 1.233579 C 4.207592 1.233579 3.055730 1.233579 1.845694 1.233579 C 1.845694 8.319273 1.845694 15.404967 1.845694 22.548834 C 2.997556 22.548834 4.161052 22.548834 5.394358 22.548834 C 5.394358 22.199785 5.394358 21.839102 5.394358 21.373703 C 6.557855 22.409215 7.791161 23.049138 9.187357 23.398187 C 14.679060 24.782747 20.426732 20.745415 20.985211 15.114092 C 20.996846 14.951203 21.055021 14.776678 21.089926 14.613789 C 21.101560 10.169232 21.101560 5.701407 21.101560 1.245215 Z" transform="scale(1.000000,1.000000) translate(232.000000,19.000000)" opacity="1.000000"></path>
        <path d="M 4.691412 12.630383 C 4.691412 9.093353 4.691412 5.567959 4.691412 1.996025 C 3.469741 1.996025 2.317880 1.996025 1.131113 1.996025 C 1.119478 2.147279 1.096208 2.298534 1.096208 2.449788 C 1.096208 8.639590 1.072938 14.817756 1.107843 21.007557 C 1.142748 26.603975 5.063731 31.327770 10.532165 32.433092 C 17.105920 33.759478 23.540055 29.140397 24.401042 22.485197 C 25.250395 15.923077 20.736028 10.035785 14.150638 9.244607 C 10.695054 8.837383 7.716503 10.024150 5.156810 12.327873 C 5.040461 12.432587 4.982286 12.618747 4.889206 12.770001 C 4.819398 12.723463 4.761223 12.676922 4.691412 12.630383 Z M 12.824256 12.758368 C 17.326987 12.770003 20.922191 16.400112 20.922191 20.914478 C 20.910556 25.417209 17.268812 29.058953 12.789350 29.035684 C 8.298254 29.012414 4.691415 25.382305 4.703050 20.867939 C 4.691412 16.376841 8.321523 12.746732 12.824256 12.758368 Z" transform="scale(1.000000,1.000000) translate(109.000000,10.000000)" opacity="1.000000"></path>
        <path d="M 6.841645 8.144141 C 8.563620 5.514639 12.205363 4.211524 15.428249 5.072511 C 17.394558 5.596084 18.965278 6.724676 20.093870 8.411746 C 21.222461 10.098816 21.641320 11.983680 21.396986 14.043069 C 22.618657 14.043069 23.793789 14.043069 24.957285 14.043069 C 25.597208 9.540337 22.909531 3.664681 16.882619 1.744912 C 11.181487 -0.070143 5.026590 2.722249 2.618153 8.202317 C 0.198080 13.705655 2.327279 20.163061 7.574648 23.153247 C 13.008176 26.248147 19.093263 24.223663 21.932194 20.837889 C 16.905889 16.614396 11.891222 12.390904 6.841645 8.144141 Z M 5.329099 11.576456 C 8.947574 14.613182 12.461333 17.568463 16.009997 20.558648 C 13.299051 21.687240 9.843466 20.930967 7.644458 18.731959 C 5.713059 16.788921 4.980051 14.427022 5.329099 11.576456 Z" transform="scale(1.000000,1.000000) translate(182.000000,18.000000)" opacity="1.000000"></path>
        <path d="M 25.160249 2.233579 C 23.938577 2.233579 22.775081 2.233579 21.565045 2.233579 C 21.565045 2.954947 21.565045 3.641410 21.565045 4.432587 C 21.378885 4.281333 21.274171 4.199888 21.181091 4.118443 C 14.514256 -1.652499 4.240582 1.558751 2.076479 10.087180 C 0.086900 17.952416 6.555941 25.433698 14.618972 24.619251 C 20.552803 24.014233 25.090440 19.069373 25.148615 13.112271 C 25.183519 9.621782 25.160250 6.131292 25.160250 2.640803 C 25.160249 2.524453 25.160249 2.408104 25.160249 2.233579 Z M 5.322634 12.949382 C 5.310999 8.481556 8.929473 4.816542 13.374029 4.793272 C 17.865125 4.781637 21.553410 8.376841 21.565044 12.798128 C 21.576679 17.417209 17.993110 21.070588 13.467109 21.070588 C 8.976016 21.093858 5.334266 17.452113 5.322634 12.949382 Z" transform="scale(1.000000,1.000000) translate(133.000000,18.000000)" opacity="1.000000"></path>
        <path d="M 1.341857 12.949382 C 1.353492 19.418422 6.612496 24.677427 13.058266 24.677427 C 19.527306 24.677427 24.809580 19.360248 24.774675 12.891207 C 24.739770 6.410532 19.492401 1.186433 13.023361 1.198068 C 6.577591 1.209704 1.330211 6.480341 1.341857 12.949382 Z M 13.046629 4.804907 C 17.537725 4.804907 21.191104 8.435016 21.191104 12.926113 C 21.202739 17.405574 17.549360 21.082223 13.081534 21.093858 C 8.602073 21.105492 4.937059 17.452114 4.925424 12.972652 C 4.925418 8.469921 8.567167 4.804907 13.046629 4.804907 Z" transform="scale(1.000000,1.000000) translate(207.000000,18.000000)" opacity="1.000000"></path>
        <path d="M 1.300474 22.618644 C 2.010207 22.618644 2.638495 22.618644 3.359863 22.618644 C 3.359863 25.376131 3.359863 28.098713 3.359863 30.856200 C 4.593169 30.856200 5.745030 30.856200 6.966702 30.856200 C 6.966702 28.121983 6.966702 25.399401 6.966702 22.618644 C 8.793391 22.618644 10.550271 22.618644 12.342056 22.618644 C 12.342056 21.408608 12.342056 20.256747 12.342056 19.023440 C 10.573541 19.023440 8.805026 19.023440 6.978337 19.023440 C 6.978337 13.054704 6.978337 7.167411 6.978337 1.245214 C 5.768301 1.245214 4.616439 1.245214 3.394768 1.245214 C 3.394768 1.501183 3.394768 1.722248 3.394768 1.943312 C 3.394768 7.411745 3.383133 12.880179 3.406403 18.348612 C 3.406403 18.872186 3.278418 19.081615 2.731575 19.023440 C 2.277811 18.976900 1.812413 19.011805 1.312109 19.011805 C 1.300474 20.221842 1.300474 21.373704 1.300474 22.618644 Z" transform="scale(1.000000,1.000000) translate(158.000000,19.000000)" opacity="1.000000"></path>
        <path d="M 4.787220 19.500475 C 6.497560 21.036290 8.452234 22.095072 10.709417 22.490661 C 11.500595 22.630280 12.315043 22.641915 13.176030 22.723360 C 13.176030 21.536593 13.176030 20.477812 13.176030 19.419030 C 13.176030 19.011806 12.873521 19.081616 12.640822 19.081616 C 10.849037 19.058346 9.243412 18.488233 7.858851 17.382911 C 5.846003 15.788921 4.752316 13.694627 4.717411 11.111665 C 4.682506 8.051669 4.705776 4.980038 4.705776 1.920043 C 4.705776 1.710613 4.705776 1.501184 4.705776 1.245215 C 3.507375 1.245215 2.355513 1.245215 1.157112 1.245215 C 1.157112 8.354178 1.157112 15.451506 1.157112 22.572105 C 2.285703 22.572105 3.425930 22.572105 4.635966 22.572105 C 4.635966 21.571498 4.635966 20.570891 4.635966 19.570285 C 4.694142 19.547015 4.740678 19.523744 4.787220 19.500475 Z" transform="scale(1.000000,1.000000) translate(171.000000,19.000000)" opacity="1.000000"></path>
    </g>
</svg>