<svg xmlns="http://www.w3.org/2000/svg" viewBox="0 0 6000 2000" enable-background="new 0 0 6000 2000"><style type="text/css">.st0{fill:#303030;} .st1{fill:#CC0000;}</style><path class="st0" d="M1913.4 822.6v466.6h-129.8v-466.6h-162.9v-111.9h457v111.8c0 .1-164.3.1-164.3.1zm258.1-111.9h129.8v578.5h-129.8v-578.5zm537.2 464c63.5 0 116-24.9 156.1-75.9l82.8 85.6c-66.3 74.6-143.6 110.4-231.9 110.4-89.7 0-162.9-27.6-220.9-84.2-57.9-56.6-87-127-87-212.6s29-157.4 88.4-215.4c59.4-58 131.2-85.6 215.4-85.6 95.2 0 174 35.9 238.9 109.1l-80.1 91.2c-41.5-51.1-91.2-75.9-151.9-75.9-48.3 0-89.7 15.2-124.3 47-34.5 31.8-51.1 74.6-51.1 128.4 0 53.9 16.6 96.7 48.3 129.8 31.7 32.9 71.7 48.1 117.3 48.1zm341-464h129.8v237.4l218.2-237.4h160.1l-230.6 255.5c19.4 27.6 56.6 78.7 110.4 154.6s93.9 131.2 120.1 168.5h-150.5l-169.8-229.2-58 64.9v164.3h-129.8l.1-578.6zm1106 214l-156.1 316.2h-77.3l-156.1-316.2v364.5h-129.8v-578.5h175.3l149.1 317.6 150.5-317.6h174v578.5h-129.8l.2-364.5zm271.9-214h129.8v578.5h-129.8v-578.5zm272.1 578.6v-578.6h129.8v463.9h247.1v114.6h-376.9zm470.9 0v-578.6h129.8v463.9h247.1v114.6c0 .1-376.9.1-376.9.1z"/><path class="st1" d="M683.2 890.2c0-11 8.3-24.9 17.9-30.4l190.6-110.4c9.7-5.5 24.9-5.5 34.5 0l167.1 96.7 234.7-135.3c-1.4-1.4-2.8-2.8-5.5-4.2l-371.5-219.5c-23.4-13.8-62.1-13.8-84.2 0l-371.5 219.5c-23.4 13.8-42.8 48.3-42.8 75.9v432.2l230.6-132.5c.1-.1.1-192 .1-192zm450 29v191.9c0 11-8.3 24.9-17.9 30.4l-190.5 110.5c-9.7 5.5-24.9 5.5-34.5 0l-167.1-96.7-234.7 135.3c1.4 1.4 2.8 2.8 5.5 4.2l371.4 218.2c23.4 13.8 62.1 13.8 84.2 0l372.8-218.2c23.4-13.8 42.8-48.3 42.8-75.9v-432.2l-232 132.5z"/></svg>